# xmcd CD database file
#
# Track frame offsets:
#	150
#	29650
#	45938
#	67052
#	90607
#	114432
#	128344
#	148852
#	169342
#	187832
#	206972
#	223602
#	246617
#	279636
#	301656
#	322321
#	348704
#
# Disc length: 4989 seconds
#
# Revision: 0
# Processed by: cddbd v1.5.2PL0 Copyright (c) Steve Scherf et al.
# Submitted via: CDex 1.83
#
DISCID=0e137b11
DTITLE=Chet Baker - Chet Plays The Best Of Lerner and Loewe
DYEAR=1959
DGENRE=Jazz
TTITLE0=Alone Together
TTITLE1=How High The Moon
TTITLE2=It Never Entered My Mind
TTITLE3='Tis Autumn
TTITLE4=If You Could See me Now
TTITLE5=September Song
TTITLE6=You'd Be So Nice To Come Home To
TTITLE7=Time On My Hands (You In My Arms)
TTITLE8=You and The Night and The Music
TTITLE9=I've Grown Accustomed To Her Face
TTITLE10=I Could Have Danced All Night
TTITLE11=The Heather On The Hill
TTITLE12=On The Street Where You Live
TTITLE13=Almost Like Being In Love
TTITLE14=Thank Heaven For Little Girls
TTITLE15=I Talk To The Trees
TTITLE16=Show Me
EXTD=YEAR: 1959
EXTT0=
EXTT1=
EXTT2=
EXTT3=
EXTT4=
EXTT5=
EXTT6=
EXTT7=
EXTT8=
EXTT9=
EXTT10=
EXTT11=
EXTT12=
EXTT13=
EXTT14=
EXTT15=
EXTT16=
PLAYORDER=
